<svg xmlns="http://www.w3.org/2000/svg" xmlns:xlink="http://www.w3.org/1999/xlink" viewBox="0 0 1130 1130">
	<defs><path id="A" style="fill:rgba(0,0,0,0)" d="M45,565C45,277.8,277.8,45,565,45s520,232.8,520,520c0,287.2-232.8,520-520,520S45,852.2,45,565 M565,0
			C253,0,0,253,0,565s253,565,565,565c311.7,0,564.4-252.4,565-564v-2C1129.4,252.4,876.7,0,565,0z"/></defs>
	<a xlink:href="#"><use xlink:href="#A" style="overflow:visible;"/></a>
	<clipPath id="2"><use xlink:href="#A"  style="overflow:visible;"/></clipPath>
	<a xlink:href="#"><path class="st0" style="fill:#fff" d="M152.2,213.5c-0.9-0.2-1.8-0.2-2.5-0.1l0.2,2.8c0.7-0.2,1.6-0.2,2.5,0L152.2,213.5z M155.7,209.4
		c-0.9-0.2-1.7-0.2-2.5-0.1l0.2,2.8c0.8-0.2,1.6-0.2,2.5,0L155.7,209.4z M156.2,214c-0.9-0.2-1.8-0.2-2.5-0.1l0.1,2.8
		c0.8-0.2,1.6-0.2,2.5,0L156.2,214z M151.5,209.1c-0.9-0.2-1.8-0.2-2.5-0.1l0.2,2.8c0.8-0.2,1.6-0.2,2.5,0L151.5,209.1z M54.7,403.1
		c0.4,0.6,0.5,1,0.4,1.3c-0.1,0.3-0.5,0.3-1.3,0.1c-0.4-0.1-1-0.3-1.8-0.6l-10.7-4.1c-2.1-0.8-3.6-1.7-4.3-2.6
		c-0.7-0.9-0.9-2-0.5-3.3c0.2-0.5,0.4-1,0.7-1.4l-1.3-2.3c-0.2,0.3-0.4,0.7-0.5,1.2c-0.7,2.1-0.3,4.1,1.1,6.2
		c1.4,2.1,3.4,3.6,6.1,4.7l8.9,3.4l1.1,0.4c0.6,0.3,1.3,0.5,1.9,0.6c1.1,0.3,1.7,0,1.9-0.7c0.2-0.6,0-1.5-0.7-2.7
		c-0.6-1.2-1.3-1.8-1.9-2c-0.2,0-0.4,0-0.6,0.3C53.8,402.1,54.3,402.5,54.7,403.1 M22.9,583.8c2.3,0.2,4.3,1.1,6,2.6
		c1.3,1.1,1.9,2.1,2,2.9c0,0.7-0.5,1.1-1.7,1.1c-2.3,0.1-4.2-0.3-5.8-1.1c-1.6-0.8-2.4-1.8-2.5-3.1c0-0.8,0.2-1.7,0.6-2.5
		L22.9,583.8z M27.9,584.3l1.2,0.1l1.1,0.1c0.5,0,0.9,0.1,1.1,0c0.9,0,1.3-0.4,1.3-1.1c0-0.9-0.7-1.9-2.1-2.9c-1-0.7-1.7-1.1-2-1.1
		c-0.1,0-0.3,0.1-0.4,0.4c1.7,0.7,2.6,1.5,2.7,2.2c0,0.2-0.2,0.3-0.6,0.4c-0.3,0-0.9,0-1.7-0.1l-0.9-0.1l-6.1-0.6
		c-0.1,0-0.4-0.1-0.9-0.1l-0.7-0.1c0,0-0.1,0-0.3-0.1c-0.2,0.7-0.3,1.5-0.3,2.4c0.1,2.5,1.2,4.6,3.3,6.3c2.1,1.7,4.5,2.5,7.3,2.4
		c2-0.1,3-0.7,2.9-2c0-0.9-0.6-2-1.8-3.1c-1.1-1.2-2.6-2.3-4.3-3.2L27.9,584.3z M67.8,763.6l-1.5-0.1l-1.3-0.1l-1.3-0.2l-2.4-0.3
		l-2.6-0.3c-2-0.2-3.6-0.1-4.8,0.4c-1.3,0.5-2.1,1.6-2.3,3.1L54,767c0.1-1.3,0.8-2.2,2.1-2.7c1.1-0.5,3-0.6,5.7-0.3l2.7,0.2
		c1.2,0.1,2.2,0.2,2.9,0.3l-3,1.9l-1.3,0.8l-1.9,1.1c-0.6,0.3-1.4,0.8-2.5,1.4l2.1,0.9c2.6-0.2,5.5-0.1,8.8,0.3l-0.7,0.4
		c-2.8,1.5-4.8,2.8-5.8,3.7c-1,0.9-1.4,1.8-1.1,2.5c0.2,0.5,0.8,0.9,1.8,1.2c1,0.3,1.8,0.3,2.4,0c0.3-0.1,0.4-0.3,0.3-0.6
		c-1.4,0.3-2.2,0.1-2.4-0.6c-0.2-0.6,0.4-1.3,1.8-2.2l2.5-1.5c1.6-1,3.4-1.9,5.4-2.7l-2.6-1.2c-2.4,0.1-4.8,0-7.2-0.2l-1.3-0.1
		l2.7-1.8l1.1-0.7c1.6-1,3.1-1.9,4.5-2.6l-2.1-0.9C68.3,763.7,67.9,763.7,67.8,763.6 M162.2,929.1c-1.1,0.2-1.9-0.1-2.5-0.6
		c-0.7-0.8-0.7-1.6,0.1-2.3c0.7-0.6,1.6-0.9,2.7-0.7c1.1,0.2,2,0.7,2.8,1.5c0.1,0.2,0.3,0.4,0.4,0.6
		C164.5,928.4,163.4,928.9,162.2,929.1 M167.6,922.4c1,1.1,0.8,2.5-0.7,4.1c-1.6-1-3.3-1.6-5.2-1.7c-1.8-0.1-3.2,0.3-4.2,1.2
		c-0.9,0.8-1,1.6-0.2,2.4c1,1.1,2.9,1.6,5.5,1.3c2.6-0.3,4.7-1.1,6.3-2.5c0.9-0.8,1.4-1.6,1.5-2.6c0.1-0.9-0.1-1.8-0.7-2.4
		c-1-1.1-2.7-1.7-5.1-1.6c-0.9,0-1.5,0.1-1.7,0.3c-0.2,0.1-0.2,0.3-0.2,0.6C165.1,921,166.6,921.2,167.6,922.4 M311.5,1038.3
		c-1,1.5-2.5,2.7-4.3,3.5c-1.8,0.8-3.2,1-4.2,0.4c-0.4-0.2-0.5-0.7-0.1-1.3c0.3-0.6,0.8-1.3,1.4-2.1l2-2.7c0.8-1.1,1.4-1.9,1.7-2.6
		c0.5-0.9,0.4-1.5-0.2-1.9c-0.6-0.3-1.5-0.3-2.9,0.1c-1.4,0.4-2.2,0.8-2.4,1.3c-0.1,0.1,0,0.3,0.1,0.5c1.6-1,2.7-1.4,3.2-1.1
		c0.2,0.1,0.2,0.4,0,0.8c-0.3,0.5-0.7,1.2-1.3,2l-3.1,4.1c-0.4,0.6-0.7,1.1-0.9,1.4c-0.6,1.1-0.5,1.8,0.3,2.3c0.8,0.4,2,0.5,3.6,0.2
		c1.6-0.3,3.3-0.9,5-1.8l-0.6,0.8l-0.5,0.8l-0.6,0.9c-0.2,0.4-0.4,0.6-0.5,0.9c-0.5,0.9-0.4,1.5,0.3,1.9c0.5,0.3,1.4,0.2,2.8-0.1
		s2.1-0.8,2.4-1.3c0.1-0.1,0-0.3-0.1-0.5c-1.4,1-2.4,1.3-3,1c-0.3-0.1-0.2-0.5,0-1c0.2-0.3,0.4-0.7,0.7-1.2l0.4-0.6l3.6-5.2l0.5-0.8
		l0.6-0.8l0.2-0.3l-2.2-0.2L311.5,1038.3z M478,1101c-0.8,0.8-1.5,1.2-2.3,1c-1.1-0.2-1.5-0.8-1.3-1.8c0.1-0.9,0.7-1.7,1.6-2.2
		c0.9-0.5,2-0.7,3.1-0.5c0.2,0,0.4,0.1,0.7,0.3C479.3,1099,478.7,1100.1,478,1101 M478,1092.4c1.5,0.2,2.2,1.5,2,3.7
		c-1.9,0.2-3.6,0.8-5.1,1.9c-1.5,1.1-2.3,2.2-2.6,3.6c-0.2,1.2,0.3,1.9,1.4,2c1.5,0.2,3.2-0.6,5.1-2.4c1.9-1.8,3-3.8,3.3-5.8
		c0.2-1.1,0-2.1-0.4-2.9c-0.5-0.8-1.2-1.3-2.1-1.5c-1.5-0.2-3.2,0.4-5,1.9c-0.7,0.6-1.1,1-1.1,1.3c0,0.2,0,0.4,0.2,0.6
		C475.1,1092.9,476.5,1092.1,478,1092.4 M663.6,1103.1c-0.3-1.6,0.2-3.2,1.6-4.6c0.6-0.2,1.2-0.4,1.8-0.5c0.6-0.1,1.3-0.2,2-0.2
		l0.7,8C666,1106.4,664,1105.5,663.6,1103.1 M667.5,1096.7c-0.4,0.1-0.8,0.2-1.2,0.3c-3.3-4.5-7.2-8-11.5-10.4
		c-4.4-2.4-8.4-3.2-12.1-2.5c-1.9,0.4-3.4,1.2-4.6,2.4c-1.2,1.3-1.6,2.6-1.4,3.9c0.1,0.5,0.4,1,0.8,1.3l1.4-2
		c-0.4-0.3-0.6-0.7-0.7-1c-0.1-0.7,0.1-1.4,0.8-2.1s1.5-1.1,2.5-1.3c3.4-0.7,7.2,0.2,11.5,2.6c4.3,2.4,8,5.8,11.3,10.1
		c-2.3,2-3.3,4.1-2.9,6.1c0.5,2.8,3,3.8,7.4,2.9c0.3-0.1,0.5-0.1,0.8-0.2l0,0.3c0.2,2.2,0,3.8-0.4,4.9c-0.5,1-1.3,1.7-2.5,1.9
		c-0.9,0.2-1.7,0.1-2.4-0.3l-1.6,2.3c0.8,0.2,1.6,0.2,2.4,0c1.9-0.4,3.4-1.5,4.6-3.3c1.2-1.8,1.9-4,2-6.6c2.4-0.9,4.2-2.2,5.4-3.9
		c1.2-1.7,1.6-3.6,1.2-5.7c-0.1-0.7-0.4-1.4-0.7-2l-1.8,2.3c0.5,0.7,0.9,1.4,1.1,2.3c0.4,2.3-1.1,4.2-4.7,5.6l-0.5,0.2l-0.9-10.4
		l-0.1-1.3c-0.2-2.2,0.2-3.7,1.2-4.6l1.5-0.1l1.4-2l-5.9,0.8l-1.3,1.9l3.2-0.4c-1.2,0.9-1.9,1.6-2.1,2.3c-0.2,0.7-0.2,2.1-0.1,4.3
		l0.1,0.9C668.3,1096.6,667.9,1096.6,667.5,1096.7 M865.7,1020.5l-0.5,0.4l-1,0.7c-0.7,0.4-1.4,0.6-2.1,0.5c-0.7-0.1-1.2-0.4-1.6-1
		c-0.7-1.1-0.8-2.4-0.2-3.9c0.4-0.3,0.7-0.6,1.1-0.8c0.5-0.4,1.1-0.7,1.8-1L865.7,1020.5z M859,1022.5c0.6,1,1.5,1.4,2.5,1.2
		c1.1-0.2,2.6-0.9,4.7-2.3l2.4-1.6l0.5-1.6l-1.8,1.2l-4.3-8.4c-0.6-1.1-0.8-1.8-0.8-2.2l0.9-0.6l0.5-1.6l-4.4,2.9l-0.5,1.6l2.4-1.6
		l-0.1,0.2c-0.2,0.4-0.3,0.8-0.1,1.2l0.3,0.6l1.5,2.9l-0.2,0.2c-0.6,0.4-1.2,0.8-1.5,1.2c-1.5-1-3-1.8-4.4-2.3
		c-1.4-0.6-2.3-0.7-2.6-0.5c-0.4,0.2-0.8,0.7-1.2,1.2c-0.4,0.6-0.6,1-0.5,1.1c0.1,0.1,0.2,0.2,0.3,0.2l0-0.1
		c0.2-0.3,0.4-0.5,0.6-0.7c0.5-0.3,1.5-0.1,3.2,0.8l1.6,0.8c0.8,0.4,1.3,0.7,1.6,0.9C858.4,1019.5,858.2,1021.3,859,1022.5
		 M980.1,903.2c1.4,0.1,2.7,0.6,4,1.7c1.4,1.1,2.3,2.5,2.6,4c0.3,1.5,0,2.9-0.9,4c-0.8,1-1.9,1.4-3.3,1.4c-1.4-0.1-2.7-0.6-4-1.7
		c-1.4-1.2-2.3-2.5-2.6-4.1c-0.3-1.5,0-2.9,1-4C977.7,903.6,978.7,903.2,980.1,903.2 M975.1,909.2c0.3,2.5,1.4,4.5,3.2,6.1
		c1.2,1,2.5,1.4,3.9,1.3c1.4-0.1,2.6-0.7,3.5-1.8c1.5-1.8,2.1-4,1.8-6.5c-0.3-2.5-1.4-4.5-3.2-6.1c-1.2-1-2.5-1.4-3.9-1.3
		c-1.4,0.1-2.5,0.7-3.4,1.8C975.4,904.5,974.8,906.7,975.1,909.2 M1058.9,768.8c0,0.5,0.2,0.8,0.6,1l0.5,0.3l3,1.6l-1.4,3.4l0.5,1.9
		l2-4.7l4.7,2.6l-0.2,0.5l-0.5,1.1l-0.8,1.7c-0.3,0.7-0.7,1-1.3,0.7c-0.1,0-0.2-0.1-0.4-0.3c0,0.1-0.1,0.1-0.1,0.2
		c-0.1,0.3,0.2,0.7,1,1.4l0.9,0.7l0.1-0.3c0.2-0.7,0.4-1.1,0.4-1.2l0.6-1.6l0.6-1.5l1.5-3.6l-0.4-1.6l-0.9,2l-8.3-4.6
		c-1.1-0.6-1.7-1.1-1.9-1.4l0.4-1l-0.5-1.6l-2,4.9l0.5,1.7l1.1-2.6L1058.9,768.8z M1093.8,567.2c0,1.6,0.6,3.1,1.8,4.5
		c1.2,1.4,2.5,2.1,3.9,2.1c1.2,0,2.6-0.7,4.1-2l1.7-1.5c1.3-1.2,2.3-1.8,3-1.8c1.1,0,1.6,0.6,1.6,1.9c0,0.8-0.3,1.5-0.8,2.2l1.5,1.7
		c0.3-0.8,0.4-1.6,0.4-2.4c0-1.3-0.4-2.5-1.2-3.4c-0.8-1-1.7-1.5-2.8-1.5c-1,0-2.1,0.6-3.5,1.7l-1.6,1.4c-1.5,1.3-2.8,2-3.9,1.9
		c-0.9,0-1.6-0.3-2.2-1c-0.6-0.7-0.9-1.4-0.9-2.3c0-1.7,0.7-3,2.2-3.7l-1.2-1.5C1094.5,564.2,1093.8,565.5,1093.8,567.2
		 M1069.8,386.6c-0.7-0.2-1-0.5-1.2-0.8c-0.1-0.3,0.2-0.5,1-0.8c0.4-0.1,1-0.3,1.8-0.5l11.2-2.6c2.2-0.5,3.9-0.6,5.1-0.3
		c1.1,0.3,1.9,1.1,2.4,2.4c0.2,0.5,0.3,1,0.3,1.5l2.5,1.2c0-0.4-0.1-0.8-0.3-1.3c-0.7-2-2.3-3.5-4.7-4.4c-2.4-0.9-5-1-7.8-0.4
		l-9.3,2.2l-1.2,0.3c-0.7,0.2-1.3,0.3-2,0.6c-1,0.4-1.4,0.9-1.2,1.6c0.2,0.6,1,1.2,2.2,1.8c1.2,0.6,2.2,0.8,2.8,0.6
		c0.2-0.1,0.3-0.2,0.3-0.5C1071.1,387,1070.4,386.9,1069.8,386.6 M989.7,227.7c-2,1.1-4.1,1.6-6.3,1.5c-1.7-0.1-2.8-0.5-3.3-1.1
		c-0.4-0.5-0.2-1.2,0.7-1.9c1.8-1.4,3.6-2.3,5.3-2.6c1.8-0.3,3,0.1,3.8,1.1c0.5,0.7,0.9,1.5,1,2.4L989.7,227.7z M985.4,230.2
		l-1.1,0.6l-0.9,0.6c-0.4,0.3-0.7,0.5-0.9,0.6c-0.7,0.6-0.8,1.1-0.4,1.6c0.6,0.7,1.7,1.1,3.4,1.1c1.2,0,2-0.1,2.2-0.3
		c0.1-0.1,0.2-0.3,0.1-0.6c-1.8,0.4-3,0.4-3.5-0.2c-0.1-0.2-0.1-0.4,0.2-0.6c0.2-0.2,0.7-0.5,1.5-0.9l0.8-0.5l5.3-3.1
		c0.1,0,0.3-0.2,0.8-0.4l0.7-0.3c0,0,0.1-0.1,0.3-0.1c-0.2-0.7-0.6-1.4-1.2-2.1c-1.6-1.9-3.7-3-6.4-3.1c-2.7-0.2-5.2,0.6-7.3,2.4
		c-1.6,1.3-2,2.4-1.2,3.3c0.6,0.7,1.7,1.2,3.3,1.5c1.6,0.3,3.4,0.3,5.4,0L985.4,230.2z M846.3,107c-0.1,0.2-0.4,0.5-0.8,0.9
		l-0.7,0.9c-0.3,0.4-0.5,0.7-0.7,0.9c-0.5,0.8-0.4,1.3,0.2,1.7c0.8,0.5,2,0.4,3.6-0.2c1.2-0.4,1.8-0.8,2-1c0.1-0.1,0-0.3-0.1-0.6
		c-1.6,1-2.7,1.4-3.3,1c-0.2-0.1-0.2-0.3,0-0.7c0.1-0.2,0.3-0.4,0.6-0.8l0.5-0.6c0.1-0.2,0.3-0.4,0.5-0.7l3.7-4.5
		c0.5-0.6,1.2-1.4,2-2.1l-2.3-0.5l-2.1,2.5c-1.1,1.3-2.6,2.3-4.6,3.1c-2,0.8-3.4,0.9-4.3,0.4c-0.4-0.2-0.4-0.6-0.1-1.2
		c0.4-0.6,0.7-1.1,1.1-1.7l2.4-3.1l0.7-0.9l0.7-0.8c0.2-0.3,0.4-0.5,0.5-0.7c0.5-0.9,0.5-1.5-0.2-1.9c-0.5-0.3-1.4-0.3-2.8,0
		c-1.3,0.3-2.2,0.7-2.5,1.2c-0.1,0.1-0.1,0.3,0,0.5c1.5-0.9,2.5-1.2,3.1-0.8c0.3,0.2,0.2,0.5,0,0.9c-0.1,0.2-0.2,0.4-0.4,0.6
		l-0.5,0.7c-0.3,0.4-0.4,0.6-0.5,0.6l-2.7,3.6c-0.6,0.8-1.1,1.4-1.3,1.8c-0.6,1-0.5,1.8,0.2,2.2c0.7,0.4,1.9,0.5,3.6,0.2
		c1.7-0.3,3.4-0.8,5.1-1.7L846.3,107z M671.5,29.7c-3.6-0.7-6.2-0.9-7.6-0.5c-2.2,0.6-3.5,1.7-3.8,3.5c-0.1,0.7-0.1,1.3,0.2,1.8
		l1.8-1.2c-0.4-0.5-0.5-1-0.4-1.5c0.2-0.9,0.6-1.4,1.3-1.6c0.7-0.2,2-0.1,3.8,0.2l6.1,1.2l-1.8,5.8l-0.3,0.9c-0.2,0.7-0.4,1.4-0.5,2
		c-0.3,1.6,0.2,2.6,1.4,2.8c0.6,0.1,1.5-0.1,2.5-0.6c1-0.5,1.6-1,1.7-1.5c0-0.1,0-0.3-0.1-0.5c-1,1.1-1.9,1.5-2.7,1.4
		c-0.7-0.1-0.9-0.7-0.7-1.7c0.1-0.5,0.3-1.3,0.6-2.3l1.8-5.8l4.3,0.8l1.9-1.3l-5.7-1.1l0.9-3l-2.1,0.3l-0.7,2.4L671.5,29.7z
		 M493.4,17.6c0-0.1-0.1-0.3-0.2-0.4c-0.5,0.8-1.3,1.5-2.3,2.1l-0.8,3C492.5,20.3,493.5,18.8,493.4,17.6 M492.4,35.5
		c-0.2,0-0.4-0.1-0.4-0.5c0-0.3-0.1-0.9-0.1-1.7l0-0.9l0-3.9c0-0.7,0-1,0-1.1l0-0.9c0-0.6,0-0.9,0-1.1c-0.1-0.9-0.5-1.4-1.2-1.3
		c-0.6,0.1-1.4,0.7-2.2,1.7s-1.3,1.9-1.2,2.4c0,0.2,0.1,0.3,0.3,0.4c0.6-1.7,1.2-2.5,1.9-2.6c0.3,0,0.4,0.2,0.5,0.6
		c0,0.2,0,0.5,0,0.8l0,0.8l0,1l0,3.8c0,1.9,0,3.1,0.1,3.5c0.1,0.9,0.5,1.3,1.2,1.2c0.9-0.1,1.8-0.9,2.7-2.4c0.7-1.1,1-1.8,0.9-2.1
		c0-0.1-0.2-0.3-0.4-0.4C493.8,34.4,493.1,35.4,492.4,35.5 M313.8,79c0.9,1.4,0.9,3,0,4.8c-0.5,0.4-1,0.8-1.5,1
		c-0.5,0.3-1.2,0.6-1.9,0.8l-3.3-7.2C310.3,76.7,312.6,76.9,313.8,79 M312.2,86.2c0.3-0.2,0.7-0.4,1-0.6c4.7,3.2,9.6,5.3,14.6,6.2
		c5,0.9,9.2,0.5,12.5-1.3c1.7-0.9,2.9-2.1,3.6-3.6c0.7-1.5,0.7-2.9,0-4.1c-0.3-0.5-0.7-0.8-1.2-1L342,84c0.5,0.2,0.8,0.4,1,0.7
		c0.4,0.6,0.4,1.4,0,2.2c-0.4,0.8-1.1,1.5-2,2c-3.1,1.6-7.1,2-12,1c-4.9-1-9.7-3-14.3-6.1c1.6-2.6,1.8-4.8,0.8-6.5
		c-1.5-2.5-4.2-2.6-8.1-0.5c-0.2,0.1-0.5,0.3-0.7,0.4l-0.1-0.3c-0.9-2-1.3-3.6-1.2-4.7c0.1-1.1,0.7-2,1.8-2.6
		c0.8-0.4,1.6-0.6,2.4-0.4l0.8-2.7c-0.8,0.1-1.6,0.3-2.3,0.7c-1.7,0.9-2.8,2.4-3.4,4.4c-0.6,2.1-0.5,4.3,0.3,6.7
		c-2,1.5-3.3,3.3-3.9,5.3c-0.6,2-0.3,3.9,0.7,5.6c0.4,0.6,0.8,1.2,1.4,1.7l0.9-2.7c-0.7-0.5-1.3-1.1-1.8-1.9c-1.2-2-0.3-4.2,2.7-6.6
		l0.4-0.3l4.3,9.4l0.6,1.2c0.9,2,1,3.5,0.4,4.7l-1.4,0.6l-0.7,2.3l5.4-2.5l0.6-2.1l-3,1.3c0.8-1.2,1.2-2.1,1.2-2.8
		c0-0.7-0.5-2-1.4-4l-0.4-0.8C311.4,86.5,311.9,86.3,312.2,86.2"/></a>
</svg>
